# xmcd
#
# Track frame offsets:
#  183
#  37570
#  59863
#  81670
#  106363
#  136158
#  157908
#  171463
#
# Disc length: 2609 seconds
#
# Revision: 0
# Processed by: cddbd v1.5.1PL2 Copyright (c) Steve Scherf et al.
# Submitted via: Collectorz.com_Music_Collector 6.9
#
DISCID=670a2f08
DTITLE=Bruce Springsteen - Plugged - Disc 2
DYEAR=1992
DGENRE=Rock
TTITLE0=Light Of Day
TTITLE1=Big Muddy
TTITLE2=57 Channels (And Nothin' On)
TTITLE3=My Beautiful Reward
TTITLE4=Glory Days
TTITLE5=Lucky Town
TTITLE6=57 Channels (And Nothin' On)
TTITLE7=Living Proof
EXTD=
EXTT0=
EXTT1=
EXTT2=
EXTT3=
EXTT4=
EXTT5=
EXTT6=
EXTT7=
PLAYORDER=
